<?xml version="1.0" standalone="no"?>
<!DOCTYPE svg PUBLIC "-//W3C//DTD SVG 20010904//EN"
 "http://www.w3.org/TR/2001/REC-SVG-20010904/DTD/svg10.dtd">
<svg version="1.0" xmlns="http://www.w3.org/2000/svg"
 width="320.000000pt" height="297.000000pt" viewBox="0 0 320.000000 297.000000"
 preserveAspectRatio="xMidYMid meet">

<g transform="translate(0.000000,297.000000) scale(0.100000,-0.100000)"
fill="#000000" stroke="none">
<path d="M805 2944 c-125 -13 -273 -71 -395 -154 -146 -101 -274 -287 -327
-476 -21 -77 -24 -341 -4 -434 75 -352 236 -568 771 -1035 336 -292 569 -539
713 -752 23 -35 45 -63 48 -63 3 0 27 33 54 73 156 232 363 456 665 722 456
403 610 574 720 800 135 279 150 575 40 820 -60 134 -152 250 -266 335 -53 40
-178 106 -229 122 -258 79 -499 53 -716 -78 -73 -45 -204 -165 -253 -234 -12
-16 -20 -21 -23 -13 -12 31 -105 130 -173 185 -86 69 -202 128 -309 157 -73
20 -236 33 -316 25z m285 -145 c211 -58 371 -197 477 -412 l45 -91 47 95 c55
112 94 170 153 225 101 95 197 150 324 185 65 18 97 20 208 17 139 -5 175 -13
295 -69 177 -83 314 -248 377 -454 27 -91 25 -321 -5 -430 -12 -44 -26 -89
-30 -100 -5 -11 -21 -45 -34 -77 -79 -178 -268 -390 -653 -728 -252 -222 -505
-483 -633 -653 -24 -31 -47 -57 -50 -57 -4 0 -32 30 -61 68 -150 187 -363 399
-666 662 -171 149 -409 387 -480 480 -98 130 -168 283 -205 449 -18 81 -15
304 5 376 67 246 250 435 496 510 30 9 60 18 65 20 6 2 64 4 130 4 93 1 138
-4 195 -20z"/>
</g>
</svg>
